<svg xmlns="http://www.w3.org/2000/svg" width="17.5" height="20" viewBox="0 0 17.5 20"><path d="M5,9.531V7.969A.469.469,0,0,1,5.469,7.5H7.031a.469.469,0,0,1,.469.469V9.531A.469.469,0,0,1,7.031,10H5.469A.469.469,0,0,1,5,9.531ZM10.469,10h1.563a.469.469,0,0,0,.469-.469V7.969a.469.469,0,0,0-.469-.469H10.469A.469.469,0,0,0,10,7.969V9.531A.469.469,0,0,0,10.469,10ZM7.5,13.281V11.719a.469.469,0,0,0-.469-.469H5.469A.469.469,0,0,0,5,11.719v1.563a.469.469,0,0,0,.469.469H7.031A.469.469,0,0,0,7.5,13.281Zm2.969.469h1.563a.469.469,0,0,0,.469-.469V11.719a.469.469,0,0,0-.469-.469H10.469a.469.469,0,0,0-.469.469v1.563A.469.469,0,0,0,10.469,13.75ZM17.5,18.594V20H0V18.594a.469.469,0,0,1,.469-.469H1.23V3.322A.885.885,0,0,1,2.168,2.5H5.625V.938A.937.937,0,0,1,6.563,0h4.375a.937.937,0,0,1,.938.938V2.5h3.457a.885.885,0,0,1,.938.822v14.8h.762A.469.469,0,0,1,17.5,18.594ZM3.105,18.086H7.5V15.469A.469.469,0,0,1,7.969,15H9.531a.469.469,0,0,1,.469.469v2.617h4.395V4.375h-2.52v.938a.937.937,0,0,1-.937.938H6.563a.937.937,0,0,1-.937-.937V4.375H3.105ZM10.391,2.5H9.375V1.484a.234.234,0,0,0-.234-.234H8.359a.234.234,0,0,0-.234.234V2.5H7.109a.234.234,0,0,0-.234.234v.781a.234.234,0,0,0,.234.234H8.125V4.766A.234.234,0,0,0,8.359,5h.781a.234.234,0,0,0,.234-.234V3.75h1.016a.234.234,0,0,0,.234-.234V2.734A.234.234,0,0,0,10.391,2.5Z" fill="#284ee8"/></svg>