<svg xmlns="http://www.w3.org/2000/svg" width="24" height="18.663" viewBox="0 0 24 18.663"><path d="M11.681,6.177,4,12.5v6.828A.667.667,0,0,0,4.666,20l4.669-.012A.667.667,0,0,0,10,19.32V15.332a.667.667,0,0,1,.667-.667h2.666a.667.667,0,0,1,.667.667v3.985a.667.667,0,0,0,.667.669L19.332,20A.667.667,0,0,0,20,19.332V12.5l-7.68-6.322a.508.508,0,0,0-.637,0Zm12.134,4.3L20.332,7.606V1.835a.5.5,0,0,0-.5-.5H17.5a.5.5,0,0,0-.5.5V4.86l-3.73-3.069a2,2,0,0,0-2.541,0L.181,10.477a.5.5,0,0,0-.067.7l1.062,1.292a.5.5,0,0,0,.7.068l9.8-8.072a.508.508,0,0,1,.637,0l9.8,8.072a.5.5,0,0,0,.7-.067l1.062-1.292a.5.5,0,0,0-.071-.705Z" transform="translate(0.001 -1.335)" fill="#bdc9f7"/></svg>