<svg xmlns="http://www.w3.org/2000/svg" width="20" height="14" viewBox="0 0 20 14"><path d="M0,14a1,1,0,0,0,1,1H19a1,1,0,0,0,1-1V4H0ZM14,7.5a.5.5,0,0,1,.5-.5h3a.5.5,0,0,1,.5.5v1a.5.5,0,0,1-.5.5h-3a.5.5,0,0,1-.5-.5Zm0,3.75a.25.25,0,0,1,.25-.25h3.5a.25.25,0,0,1,.25.25v.5a.25.25,0,0,1-.25.25h-3.5a.25.25,0,0,1-.25-.25Zm-12-3A.25.25,0,0,1,2.25,8h9.5a.25.25,0,0,1,.25.25v.5a.25.25,0,0,1-.25.25H2.25A.25.25,0,0,1,2,8.75Zm0,3A.25.25,0,0,1,2.25,11h5.5a.25.25,0,0,1,.25.25v.5a.25.25,0,0,1-.25.25H2.25A.25.25,0,0,1,2,11.75ZM19.5,1H.5a.5.5,0,0,0-.5.5V3H20V1.5A.5.5,0,0,0,19.5,1Z" transform="translate(0 -1)" fill="#284ee8"/></svg>