<svg xmlns="http://www.w3.org/2000/svg" width="18" height="18" viewBox="0 0 18 18"><path d="M18,10.157a1.14,1.14,0,0,1-1.148,1.093H14.906v.563a5.043,5.043,0,0,1-.478,2.15l2.117,2.117a1.125,1.125,0,0,1-1.591,1.591L13.03,15.746a5.041,5.041,0,0,1-3.186,1.129V8.3a.422.422,0,0,0-.422-.422H8.578a.422.422,0,0,0-.422.422v8.578A5.041,5.041,0,0,1,4.97,15.746L3.046,17.671A1.125,1.125,0,0,1,1.454,16.08l2.117-2.117a5.043,5.043,0,0,1-.478-2.15V11.25H1.148A1.14,1.14,0,0,1,0,10.157,1.125,1.125,0,0,1,1.125,9H3.094V6.935L1.454,5.3A1.125,1.125,0,0,1,3.046,3.7l1.92,1.921h8.068l1.92-1.92A1.125,1.125,0,1,1,16.545,5.3L14.906,6.935V9h1.969A1.125,1.125,0,0,1,18,10.157ZM9.035,0A3.937,3.937,0,0,0,5.1,3.937h7.875A3.937,3.937,0,0,0,9.035,0Z" transform="translate(0)" fill="#fff"/></svg>