<svg xmlns="http://www.w3.org/2000/svg" width="22.975" height="24" viewBox="0 0 22.975 24"><path d="M23.584,15.276l-2.061-1.19a9.32,9.32,0,0,0,0-3.4L23.584,9.5a.585.585,0,0,0,.266-.677A12.051,12.051,0,0,0,21.2,4.244a.582.582,0,0,0-.716-.111l-2.061,1.19a9.132,9.132,0,0,0-2.942-1.7V1.248a.58.58,0,0,0-.455-.566,12.164,12.164,0,0,0-5.284,0,.58.58,0,0,0-.455.566V3.629a9.42,9.42,0,0,0-2.942,1.7L4.292,4.137a.575.575,0,0,0-.716.111A11.979,11.979,0,0,0,.929,8.826.579.579,0,0,0,1.2,9.5l2.061,1.19a9.32,9.32,0,0,0,0,3.4L1.2,15.281a.585.585,0,0,0-.266.677,12.051,12.051,0,0,0,2.647,4.577.582.582,0,0,0,.716.111l2.061-1.19a9.132,9.132,0,0,0,2.942,1.7v2.381a.58.58,0,0,0,.455.566,12.164,12.164,0,0,0,5.284,0,.58.58,0,0,0,.455-.566V21.155a9.42,9.42,0,0,0,2.942-1.7l2.061,1.19a.575.575,0,0,0,.716-.111,11.979,11.979,0,0,0,2.647-4.577A.6.6,0,0,0,23.584,15.276Zm-11.2.982a3.871,3.871,0,1,1,3.871-3.871A3.876,3.876,0,0,1,12.387,16.258Z" transform="translate(-0.902 -0.392)" fill="#bdc9f7"/></svg>