<svg xmlns="http://www.w3.org/2000/svg" width="18" height="18" viewBox="0 0 18 18"><path d="M9,3.774a3.484,3.484,0,1,0,3.484,3.484A3.485,3.485,0,0,0,9,3.774ZM9,9a1.742,1.742,0,1,1,1.742-1.742A1.742,1.742,0,0,1,9,9ZM9,.29a9,9,0,1,0,9,9A9,9,0,0,0,9,.29ZM9,16.548a7.217,7.217,0,0,1-4.721-1.756A3.126,3.126,0,0,1,6.8,13.358a7.383,7.383,0,0,0,2.2.348,7.268,7.268,0,0,0,2.2-.348,3.136,3.136,0,0,1,2.526,1.433A7.217,7.217,0,0,1,9,16.548ZM14.9,13.5a4.814,4.814,0,0,0-3.814-1.883A10.891,10.891,0,0,1,9,11.961a10.949,10.949,0,0,1-2.09-.348A4.824,4.824,0,0,0,3.1,13.5,7.254,7.254,0,1,1,16.258,9.29,7.206,7.206,0,0,1,14.9,13.5Z" transform="translate(0 -0.29)" fill="#fff"/></svg>