<svg xmlns="http://www.w3.org/2000/svg" width="15.75" height="18" viewBox="0 0 15.75 18"><path d="M15.447,12.737c-.679-.73-1.95-1.828-1.95-5.424A5.552,5.552,0,0,0,9,1.858V1.125a1.124,1.124,0,1,0-2.249,0v.733a5.552,5.552,0,0,0-4.5,5.455c0,3.6-1.271,4.694-1.95,5.424A1.1,1.1,0,0,0,0,13.5a1.126,1.126,0,0,0,1.129,1.125H14.621A1.126,1.126,0,0,0,15.75,13.5a1.1,1.1,0,0,0-.3-.763Zm-13.073.2a8.8,8.8,0,0,0,1.566-5.6c0-.007,0-.013,0-.02a3.938,3.938,0,0,1,7.875,0c0,.007,0,.013,0,.02a8.8,8.8,0,0,0,1.566,5.6ZM7.875,18a2.25,2.25,0,0,0,2.249-2.25h-4.5A2.25,2.25,0,0,0,7.875,18Z" transform="translate(0)" fill="#fff"/></svg>