<svg xmlns="http://www.w3.org/2000/svg" width="17.268" height="15.11" viewBox="0 0 17.268 15.11"><path d="M17.268,5.027v9.713a1.619,1.619,0,0,1-1.619,1.619H1.619A1.619,1.619,0,0,1,0,14.741V5.027A1.619,1.619,0,0,1,1.619,3.409H4.587L5,2.3A1.617,1.617,0,0,1,6.516,1.25h4.233A1.617,1.617,0,0,1,12.263,2.3l.418,1.11h2.968A1.619,1.619,0,0,1,17.268,5.027ZM12.681,9.884a4.047,4.047,0,1,0-4.047,4.047A4.05,4.05,0,0,0,12.681,9.884Zm-1.079,0A2.968,2.968,0,1,1,8.634,6.916,2.972,2.972,0,0,1,11.6,9.884Z" transform="translate(0 -1.25)" fill="#fff"/></svg>