<svg xmlns="http://www.w3.org/2000/svg" width="18" height="18" viewBox="0 0 18 18"><path d="M12.375,3.375A3.375,3.375,0,1,0,9,6.75,3.375,3.375,0,0,0,12.375,3.375Zm-4.163,5.1C6.126,7.2,2.748,6.848,1.048,6.752A.973.973,0,0,0,0,7.7v7.833a.967.967,0,0,0,.931.951,18.912,18.912,0,0,1,6.786,1.456.489.489,0,0,0,.72-.417V8.879A.468.468,0,0,0,8.212,8.476Zm8.74-1.724c-1.7.1-5.079.448-7.164,1.724a.477.477,0,0,0-.225.409v8.641a.491.491,0,0,0,.722.418,18.919,18.919,0,0,1,6.784-1.455A.967.967,0,0,0,18,15.537V7.7A.973.973,0,0,0,16.952,6.752Z" fill="#fff"/></svg>