<svg xmlns="http://www.w3.org/2000/svg" width="17.5" height="20" viewBox="0 0 17.5 20"><path d="M15.625,2.5H13.75V.469A.469.469,0,0,0,13.281,0H11.719a.469.469,0,0,0-.469.469V2.5h-5V.469A.469.469,0,0,0,5.781,0H4.219A.469.469,0,0,0,3.75.469V2.5H1.875A1.875,1.875,0,0,0,0,4.375v13.75A1.875,1.875,0,0,0,1.875,20h13.75A1.875,1.875,0,0,0,17.5,18.125V4.375A1.875,1.875,0,0,0,15.625,2.5Zm-.234,15.625H2.109a.234.234,0,0,1-.234-.234V6.25h13.75V17.891a.234.234,0,0,1-.234.234Zm-2.064-7.838L7.767,15.8a.469.469,0,0,1-.663,0L4.171,12.842a.469.469,0,0,1,0-.663l.887-.88a.469.469,0,0,1,.663,0l1.723,1.737,4.339-4.3a.469.469,0,0,1,.663,0l.88.887a.469.469,0,0,1,0,.663Z" fill="#284ee8"/></svg>