<svg xmlns="http://www.w3.org/2000/svg" width="20" height="14" viewBox="0 0 20 14"><path d="M19,1H1A1,1,0,0,0,0,2V14a1,1,0,0,0,1,1H19a1,1,0,0,0,1-1V2A1,1,0,0,0,19,1ZM5.5,10.246v.5a.25.25,0,0,1-.25.25h-.5a.25.25,0,0,1-.25-.25v-.509a1.789,1.789,0,0,1-.98-.355A.25.25,0,0,1,3.5,9.507l.367-.35a.256.256,0,0,1,.317-.023.752.752,0,0,0,.4.116h.878a.393.393,0,0,0,.369-.412.408.408,0,0,0-.274-.4L4.153,8.018a1.414,1.414,0,0,1-.987-1.356A1.392,1.392,0,0,1,4.5,5.254v-.5a.25.25,0,0,1,.25-.25h.5a.25.25,0,0,1,.25.25v.509a1.787,1.787,0,0,1,.98.355.25.25,0,0,1,.018.379l-.367.35a.256.256,0,0,1-.317.023.75.75,0,0,0-.4-.116H4.535a.393.393,0,0,0-.369.412.408.408,0,0,0,.274.4l1.406.422a1.414,1.414,0,0,1,.987,1.356A1.391,1.391,0,0,1,5.5,10.246Zm7.5-.5a.25.25,0,0,1-.25.25H9.25A.25.25,0,0,1,9,9.75v-.5A.25.25,0,0,1,9.25,9h3.5a.25.25,0,0,1,.25.25Zm5,0a.25.25,0,0,1-.25.25h-2.5A.25.25,0,0,1,15,9.75v-.5A.25.25,0,0,1,15.25,9h2.5a.25.25,0,0,1,.25.25Zm0-3a.25.25,0,0,1-.25.25H9.25A.25.25,0,0,1,9,6.75v-.5A.25.25,0,0,1,9.25,6h8.5a.25.25,0,0,1,.25.25Z" transform="translate(0 -1)" fill="#284ee8"/></svg>